<svg xmlns="http://www.w3.org/2000/svg" viewBox="0 0 400 100">
  <defs>
    <linearGradient id="grad" x1="0%" y1="0%" x2="100%" y2="0%">
      <stop offset="0%" style="stop-color:#4a90e2;stop-opacity:1" />
      <stop offset="100%" style="stop-color:#50e3c2;stop-opacity:1" />
    </linearGradient>
  </defs>
  
  <!-- Brain icon -->
  <path d="M50,20 C35,20 25,35 25,50 C25,65 35,80 50,80 C65,80 75,65 75,50 C75,35 65,20 50,20 M50,30 C40,30 35,40 35,50 C35,60 40,70 50,70 C60,70 65,60 65,50 C65,40 60,30 50,30" fill="url(#grad)"/>
  
  <!-- Lightning bolt -->
  <path d="M55,35 L45,50 L52,50 L47,65 L57,50 L50,50 Z" fill="#ffffff"/>
  
  <!-- Text -->
  <text x="100" y="45" font-family="Arial, sans-serif" font-size="24" font-weight="bold" fill="#333333">AIFlux Advanced Chat</text>
  <text x="100" y="70" font-family="Arial, sans-serif" font-size="16" fill="#666666">Conversation AI Evolved</text>
</svg>
